<svg width="27" height="23" viewBox="0 0 27 23" fill="none" xmlns="http://www.w3.org/2000/svg">
<path d="M8.48444 15.3333H22.3355C22.6785 15.3333 22.9795 15.1064 23.0721 14.7772L26.1387 4.04391C26.2047 3.81238 26.1597 3.56398 26.0145 3.3718C25.8694 3.17962 25.6435 3.06667 25.4022 3.06667H6.71446L6.16655 0.600555C6.08886 0.249422 5.77709 0 5.41778 0H0.766666C0.342955 0 0 0.342955 0 0.766666C0 1.19038 0.342955 1.53333 0.766666 1.53333H4.8024L7.57109 13.9917C6.75638 14.3459 6.18444 15.1565 6.18444 16.1C6.18444 17.3681 7.21637 18.4 8.48444 18.4H22.3355C22.7593 18.4 23.1022 18.057 23.1022 17.6333C23.1022 17.2096 22.7593 16.8667 22.3355 16.8667H8.48444C8.06226 16.8667 7.71777 16.5232 7.71777 16.1C7.71777 15.6768 8.06226 15.3333 8.48444 15.3333Z" fill="black"/>
<path d="M7.71777 20.6999C7.71777 21.9685 8.74971 22.9999 10.0178 22.9999C11.2858 22.9999 12.3178 21.9685 12.3178 20.6999C12.3178 19.4318 11.2858 18.3999 10.0178 18.3999C8.74971 18.3999 7.71777 19.4318 7.71777 20.6999Z" fill="black"/>
<path d="M18.5022 20.6999C18.5022 21.9685 19.5341 22.9999 20.8022 22.9999C22.0708 22.9999 23.1022 21.9685 23.1022 20.6999C23.1022 19.4318 22.0708 18.3999 20.8022 18.3999C19.5341 18.3999 18.5022 19.4318 18.5022 20.6999Z" fill="black"/>
</svg>
