<svg width="24" height="24" viewBox="0 0 24 24" fill="none" xmlns="http://www.w3.org/2000/svg">
<path d="M9.6986 0.830563L3.49157 2.90079L0.708099 0.117322C0.544028 -0.0410022 0.28329 -0.0389121 0.122353 0.122547C-0.0385832 0.284006 -0.0411958 0.544221 0.117128 0.708293L2.9006 3.49176L0.830369 9.69879L15.1318 24.0002L24 15.132L9.6986 0.830563ZM3.80142 6.26426C3.80142 4.90623 4.90656 3.8011 6.26459 3.8011C7.62262 3.8011 8.72775 4.90623 8.72775 6.26426C8.72775 7.62229 7.62262 8.72742 6.26459 8.72742C4.90656 8.72742 3.80142 7.62229 3.80142 6.26426ZM10.1145 13.7698C9.55281 14.3315 8.63892 14.3315 8.07669 13.7698C7.51446 13.208 7.51498 12.2942 8.07669 11.7319C8.6384 11.1702 9.55229 11.1702 10.1145 11.7319C10.6762 12.2942 10.6762 13.208 10.1145 13.7698ZM13.5522 17.5058C13.5522 17.9039 13.2298 18.2263 12.8316 18.2263C12.4335 18.2263 12.1111 17.9039 12.1111 17.5058V7.99642C12.1111 7.59826 12.4335 7.27586 12.8316 7.27586C13.2298 7.27586 13.5522 7.59826 13.5522 7.99642V17.5058ZM15.5487 13.7698C14.987 13.208 14.987 12.2942 15.5487 11.7319C16.1105 11.1702 17.0243 11.1702 17.5866 11.7319C18.1483 12.2936 18.1483 13.2075 17.5866 13.7698C17.0249 14.332 16.1105 14.332 15.5487 13.7698Z" fill="black"/>
</svg>
