<svg width="22" height="24" viewBox="0 0 22 24" fill="none" xmlns="http://www.w3.org/2000/svg">
<path d="M10.3793 10.7407C11.8757 10.7407 13.1176 10.2262 14.1765 9.16725C15.2349 8.10832 15.75 6.86638 15.75 5.37006C15.75 3.87431 15.2349 2.63237 14.1765 1.57344C13.1176 0.514503 11.8751 0 10.3793 0C8.88302 0 7.64107 0.514503 6.58271 1.57344C5.52378 2.63237 5.00928 3.87431 5.00928 5.37006C5.00928 6.86638 5.52436 8.10832 6.58271 9.16725C7.64165 10.2256 8.88359 10.7407 10.3793 10.7407Z" fill="black"/>
<path d="M21.0751 18.251C21.0394 17.7382 20.9669 17.1742 20.8593 16.5739C20.7534 15.9823 20.6175 15.427 20.4564 14.9234C20.3022 14.4417 20.0915 13.964 19.8297 13.5042C19.5805 13.0651 19.2933 12.6893 18.9768 12.3865C18.681 12.1034 18.3075 11.8709 17.8678 11.6971C17.4609 11.5359 17.0039 11.4479 16.5073 11.4347C16.4468 11.4669 16.3392 11.5285 16.1648 11.6418C15.8098 11.8732 15.4121 12.1299 14.9494 12.4257C14.4389 12.7514 13.7822 13.0444 12.9967 13.2982C12.195 13.5571 11.3761 13.6889 10.564 13.6889C9.75197 13.6889 8.9336 13.5571 8.13134 13.2976C7.34635 13.0444 6.6897 12.7508 6.1798 12.4257C5.72745 12.1368 5.31826 11.8726 4.96317 11.6413C4.7888 11.5273 4.68118 11.4663 4.62075 11.4341C4.12466 11.4473 3.66771 11.5354 3.26082 11.6965C2.82114 11.8703 2.44763 12.1022 2.15182 12.386C1.83529 12.6893 1.54869 13.0651 1.29892 13.5036C1.03764 13.9634 0.827004 14.4411 0.672768 14.9234C0.511626 15.4264 0.376382 15.9817 0.269913 16.5739C0.162293 17.173 0.0897791 17.737 0.0540977 18.251C0.0184162 18.7741 0 19.3191 0 19.871C0 20.9328 0.299839 21.7345 0.916783 22.3221C1.54581 22.9206 2.38145 23.2118 3.47088 23.2118H17.6589C18.7483 23.2118 19.5839 22.9206 20.213 22.3221C20.8299 21.7351 21.1297 20.9334 21.1303 19.8716C21.1297 19.3174 21.1113 18.7724 21.0751 18.251Z" fill="black"/>
</svg>
